<?xml version="1.0" encoding="utf-8"?>
<!-- Generator: Adobe Illustrator 25.4.1, SVG Export Plug-In . SVG Version: 6.00 Build 0)  -->
<svg version="1.1" id="Layer_1" xmlns="http://www.w3.org/2000/svg" xmlns:xlink="http://www.w3.org/1999/xlink" x="0px" y="0px"
	 viewBox="0 0 1920 1080" style="enable-background:new 0 0 1920 1080;" xml:space="preserve">
<style type="text/css">
	.st0{fill:#0A140C;}
	.st1{fill:#0A140C;}
	.st2{fill:#0A140C;}
	.st3{fill:#0A140C;}
	.st4{fill:#FFFFFF;}
	.st5{fill:#ffe600;}
	.st6{fill:#F9669A;}
	.st7{fill:#F43E71;}
</style>
<path class="st0" d="M569.93,689.19c-1.25-2.22-3.71-3.72-6.28-3.61c-1.08,0.05-2.14,0.36-3.22,0.3c-7.44-0.37-8.5-14.75-9.54-20.08
	c-2.76-14.04-3.24-28.75-2.98-43.01c0.66-36.9,8.48-73.07,13.55-109.49c0.01-0.05,0.02-0.11,0.03-0.16
	c46.92-242.39,343.33-227.37,536.32-211.03c55.76,4.44,106.74,29.4,139.03,75.88c31.4,45.2,42.95,101.76,45.49,155.88
	c2.24,47.77-3.3,95.49-12.96,142.22c-4.9,23.7-11.36,46.93-17.2,70.4c-7.53,30.27-23.72,50.35-52.48,62.63
	c-30.77,13.14-72.96,16.59-101.96-2.81c-25.37-16.98-39.02-46.64-50.91-73.66c-16.53-37.57-28.52-77.53-51.45-111.96
	c-17.82-26.76-42.47-48.06-74.41-55.31c-0.28-0.06-0.58-0.09-0.86-0.07c-99.95,5.95-93.18,139.94-150.45,196.81
	c-54.58,57.5-154.51,37.66-186.47-33.75 M711.88,764.48c66.61-24.87,45.33-122.42,93.97-167.91c0.13-0.12,0.25-0.26,0.35-0.4
	c50.69-71.21,153.48-67.75,208.97-3.32c0.12,0.14,0.26,0.27,0.41,0.38c58.13,43.93,46.23,131.73,99.45,179.47
	c10.12,9.08,22.58,17.05,36.63,16.79c25.08-0.46,44.49-24.86,55.6-44.92c41.17-74.36,19.76-164.7,38.36-244.66
	c7.5-32.27,4.78-61.07-12.35-90.35c-35.01-59.84-109.46-68.64-171.69-77.46c-58.59-8.31-118.13-12.52-177.27-8.86
	c-55.67,3.45-112.46,13.86-162.46,39.54c-48.01,24.67-86.11,64.05-106.31,114.39c-11.26,28.06-16.97,58.1-18.88,88.2
	c-0.01,0.13-0.03,0.26-0.05,0.38c-16.27,77.06,4.08,169.6,85.19,199.28"/>
<path class="st1" d="M1248.69,494.08c0.18-0.28,0.35-0.56,0.53-0.85C1249.05,493.52,1248.87,493.8,1248.69,494.08z"/>
<path class="st2" d="M1180.15,780.34c0.12-0.05,0.23-0.11,0.35-0.16C1180.38,780.23,1180.26,780.29,1180.15,780.34z"/>
<path class="st3" d="M1219.03,380.45c-0.18-0.13-0.36-0.26-0.54-0.4C1218.67,380.19,1218.85,380.32,1219.03,380.45z"/>
<path class="st4" d="M596.48,754.32c0.04-0.2,0.09-0.41,0.13-0.61c0.07,0.03,0.14,0.07,0.21,0.1c-0.12,0.16-0.24,0.31-0.36,0.48
	C596.46,754.3,596.48,754.32,596.48,754.32z"/>
<path class="st5" d="M696.84,605.53"/>
<path class="st5" d="M698.92,687.86c-5.26-1.17-6.85-12.18-8.17-16.55c-0.21,0.89-0.41,1.77-0.62,2.66
	c-2.08-16.87-4.16-33.75-6.25-50.62c-0.29-2.36-0.69-4.77-1.71-6.94c-2.55-5.42-9.69-4.39-14.52-7.32
	c-0.44-0.27-1.01-0.14-1.33,0.28c-0.29,0.38-0.64,0.69-1.33,0.71c-0.05,0-0.1-0.02-0.14-0.06c-1.45-1.85-5.34-6.64-7.04-6.08
	c-2.38,0.78-1.35,6.98-4.81,6.32c-0.39-4.93,0.01-10.49,0.83-15.4c2.37-14.22,4.91-28.37,9.65-42.12
	c8.21-23.78,20.64-44.94,38.37-62.69c11.07-11.09,22.57-21.93,34.94-31.5c15.88-12.3,32.57-23.72,51.41-31.23
	c9.47-3.78,19.33-6.57,28.99-9.87c14.97-5.12,30.18-9.06,45.98-10.92c19.33-2.27,38.44-6.57,58.08-5.86
	c13.56,0.49,27.18,0.38,40.69,1.58c15.64,1.38,31.18,3.98,46.78,5.89c16.92,2.07,33.13,6.78,49.01,12.8
	c15.05,5.71,28.48,13.99,40.17,25.1c8.45,8.03,17.23,15.74,25.36,24.08c8.42,8.65,14.47,18.89,19.01,30.2
	c5.68,14.12,13.34,27.52,18.06,41.91c5,15.26,7.62,31.29,11.15,47.02c1.82,8.08,3.98,16.15,4.9,24.35
	c1.07,9.63,0.43,1.84,0.83,11.54c0.02,0.4,0.49,18.37,0.39,18.75c-2.21,8.34-1.17,7.97-9.64,9.25c-3.53,0.53-6.8,2.27-10.42,2.23
	c-3.41-0.03-6.83-0.07-10.24-0.1c-2.88-0.03-5.92-0.9-8.56,0.7c-0.58-2.72-0.45-5.86-0.65-8.66c-0.21-2.87-0.41-5.75-0.55-8.63
	c-0.7-14.39-3.42-28.43-6.81-42.4c-3.12-12.84-5.15-25.98-8.82-38.66c-2.54-8.81-7.06-17.04-10.66-25.55
	c-2.27-5.36-3.98-11.02-6.82-16.05c-3.61-6.4-7.41-12.96-12.39-18.28c-7.98-8.54-16.89-16.25-25.6-24.08
	c-10.13-9.1-22.38-14.17-35.18-18.3c-14.14-4.56-28.49-7.62-43.36-8.42c-7.07-0.38-14.08-1.88-21.15-2.34
	c-18.13-1.19-36.28-2.88-54.41-2.81c-12.93,0.05-25.85,2.52-38.75,4.11c-6.75,0.83-14.73,3.61-21.49,3.13
	c-6.28-0.45-10.31-3.42-17.08-1.55c-6.86,1.9-55.58,13.19-51.05,23.02c0.96,2.08-3.77,4.43-5.07,5.43
	c-16.3,12.46-33.61,24.12-47.39,39.48c-1.98,2.21-3.88,4.49-5.69,6.85c-3.76,4.9-6.89,10.28-10.37,15.39
	c-2.35,3.47-5.34,6.62-7.14,10.35c-5.3,11.01-19.03,41.89-9.48,137.06"/>
<path class="st6" d="M683.98,623.27c0.05,0.53,0.1,1.07,0.15,1.6C684.08,624.34,684.03,623.8,683.98,623.27z"/>
<path class="st7" d="M783.23,472.59c0.2-0.13,0.4-0.26,0.6-0.39C783.63,472.33,783.43,472.46,783.23,472.59z"/>
</svg>
